<svg id="visual" viewBox="0 0 800 800" width="800" height="800" xmlns="http://www.w3.org/2000/svg" xmlns:xlink="http://www.w3.org/1999/xlink" version="1.1"><path d="M0 103L82 163L164 115L245 139L327 121L409 121L491 133L573 127L655 157L736 73L818 61L900 157L900 0L818 0L736 0L655 0L573 0L491 0L409 0L327 0L245 0L164 0L82 0L0 0Z" fill="#00cc8e"></path><path d="M0 289L82 295L164 223L245 211L327 259L409 319L491 241L573 271L655 337L736 283L818 157L900 265L900 155L818 59L736 71L655 155L573 125L491 131L409 119L327 119L245 137L164 113L82 161L0 101Z" fill="#00b98a"></path><path d="M0 409L82 469L164 415L245 433L327 445L409 415L491 475L573 445L655 475L736 499L818 409L900 451L900 263L818 155L736 281L655 335L573 269L491 239L409 317L327 257L245 209L164 221L82 293L0 287Z" fill="#00a784"></path><path d="M0 493L82 529L164 505L245 523L327 493L409 475L491 523L573 481L655 511L736 541L818 481L900 541L900 449L818 407L736 497L655 473L573 443L491 473L409 413L327 443L245 431L164 413L82 467L0 407Z" fill="#00957c"></path><path d="M0 601L82 601L164 601L245 601L327 601L409 601L491 601L573 601L655 601L736 601L818 601L900 601L900 539L818 479L736 539L655 509L573 479L491 521L409 473L327 491L245 521L164 503L82 527L0 491Z" fill="#038373"></path></svg>